<svg width="258" height="105" viewBox="0 0 258 105" fill="none" xmlns="http://www.w3.org/2000/svg">
<g id="Clip path group" filter="url(#filter0_d_248_22)">
<mask id="mask0_248_22" style="mask-type:luminance" maskUnits="userSpaceOnUse" x="4" y="0" width="250" height="97">
<g id="clip0_1930_1250">
<path id="Vector" d="M253.928 0H4V96.2151H253.928V0Z" fill="white"/>
</g>
</mask>
<g mask="url(#mask0_248_22)">
<g id="Group">
<path id="Vector_2" d="M168.726 52.8809V71.475C168.726 72.4732 168.103 73.3467 167.198 73.7524C167.198 73.7524 167.167 73.7524 167.135 73.7524C162.923 75.4059 156.59 76.5602 149.103 76.5602C134.596 76.5602 126.952 71.3189 126.952 61.4291C126.952 49.1682 137.091 43.4901 155.124 44.3948C154.718 39.6528 151.911 36.7201 145.203 36.7201C141.74 36.7201 138.402 37.4377 135.719 38.4672C135.407 38.592 135.095 38.6544 134.752 38.6544C133.628 38.6544 132.661 37.9056 132.318 36.8761L130.977 33.4131C130.883 33.1323 130.821 32.8515 130.821 32.5396C130.821 31.4788 131.476 30.5741 132.412 30.1998C136.592 28.3279 141.678 26.9552 147.73 27.1736C160.24 27.6727 168.726 34.2555 168.726 47.8891V52.7872V52.8809ZM155.155 69.1038V50.8216C147.262 50.1977 140.742 53.0991 140.742 60.7115C140.742 66.2648 144.08 69.5718 149.852 69.5718C153.595 69.5718 155.155 69.1038 155.155 69.1038Z" fill="#0068A6"/>
<path id="Vector_3" fill-rule="evenodd" clip-rule="evenodd" d="M44.8383 75.9675C43.7152 75.9675 42.7793 75.2187 42.4672 74.1891C42.4672 74.1891 42.4672 74.158 42.4672 74.1267L39.1602 62.5834H20.2542L16.7912 74.158C16.4793 75.2186 15.5121 75.9675 14.389 75.9675H6.49585C5.12313 75.9675 4 74.8443 4 73.4716C4 73.2219 4.0312 72.9724 4.12479 72.7229V72.6605L22.8749 15.1311C23.1868 14.0703 24.1539 13.3216 25.2771 13.3216H36.0093C37.1325 13.3216 38.0683 14.0391 38.3804 15.0375L57.0369 72.6292C57.1304 72.8787 57.1616 73.1595 57.1616 73.4403C57.1616 74.813 56.0697 75.9362 54.697 75.9362H44.8072L44.8383 75.9675ZM37.1325 54.0975H22.4381L28.2722 33.6939C29.5512 29.2326 29.8944 26.1439 29.8944 26.1439H30.0817C30.0817 26.1439 30.3625 29.3261 31.5479 33.6939L37.1012 54.0975H37.1325Z" fill="#0068A6"/>
<path id="Vector_4" d="M58.7517 13.228C58.7517 12.2297 59.3444 11.3561 60.1868 10.9505L68.1423 6.80119C68.579 6.52041 69.2342 6.33322 69.7645 6.33322C71.1372 6.33322 72.2604 7.45636 72.2604 8.82907C72.2604 8.89147 72.2604 61.2108 72.2604 61.2108C72.2917 64.3305 75.0371 66.8264 78.188 66.8264C79.5609 66.8264 80.6839 67.9495 80.6839 69.3222V73.3781C80.6839 74.7508 79.5609 75.8738 78.188 75.8738H75.4426C66.208 75.8738 58.7517 68.3863 58.7517 59.1829V13.228Z" fill="#0068A6"/>
<path id="Vector_5" fill-rule="evenodd" clip-rule="evenodd" d="M108.67 67.4192C107.515 68.1367 105.706 68.5735 103.834 68.5735C96.8766 68.5735 94.0375 63.3946 94.0375 52.5377C94.0375 41.0567 96.9702 35.2539 104.114 35.2539C105.986 35.2539 107.609 35.5347 108.67 36.065V67.4192ZM120.743 30.0439C121.617 30.4495 122.21 31.3229 122.21 32.3525V75.4995C122.21 89.1331 113.724 95.7471 101.213 96.215C95.1294 96.4647 90.0442 95.0608 85.8948 93.1889C84.959 92.8144 84.3037 91.9098 84.3037 90.849C84.3037 90.5369 84.3661 90.225 84.4598 89.9755L85.8012 86.5125C86.1133 85.4828 87.0804 84.7341 88.2347 84.7341C88.5779 84.7341 88.921 84.7965 89.2018 84.9214C91.8848 85.982 95.2544 86.6997 98.6861 86.6997C105.986 86.6997 108.67 83.2366 108.67 77.6833V75.0003C107.078 75.9051 104.302 76.529 100.277 76.529C88.7652 76.529 80.4976 67.7 80.4976 53.3488C80.4976 37.3129 88.7026 27.236 105.175 27.236C111.571 27.236 117.093 28.3591 120.681 30.0126C120.681 30.0126 120.743 30.0126 120.743 30.0439Z" fill="#0068A6"/>
<path id="Vector_6" d="M175.497 33.382C175.497 31.4477 176.869 29.8566 178.648 29.2639C183.265 27.6728 189.349 26.8928 198.428 27.1423H198.489C199.862 27.1423 200.985 28.2655 200.985 29.6381V33.0388C200.985 34.4427 199.862 35.5658 198.489 35.5658C198.396 35.5658 198.303 35.5658 198.208 35.5658C194.84 35.2851 190.784 35.9715 189.036 36.7826V73.5652C189.006 74.9066 187.881 75.9987 186.541 75.9987H178.024C176.651 75.9987 175.527 74.8755 175.527 73.5028C175.527 73.4405 175.527 73.4092 175.527 73.3468V33.4132V33.382H175.497Z" fill="#0068A6"/>
<path id="Vector_7" d="M211.03 29.6695C211.03 28.8271 211.499 28.0158 212.278 27.5792C213.121 27.08 214.119 27.1423 214.868 27.6416C214.868 27.6416 229.375 36.0026 229.407 36.0338C230.124 36.5019 230.591 37.2817 230.591 38.1864C230.591 39.1536 230.031 39.996 229.25 40.4015C229.25 40.4015 214.743 48.7939 214.712 48.7939C213.963 49.1994 213.058 49.2307 212.248 48.7939C211.405 48.2947 210.969 47.4212 210.999 46.5164V29.7006L211.03 29.6695Z" fill="#009FE3"/>
<path id="Vector_8" d="M234.304 43.0847C234.304 42.2423 234.773 41.4312 235.553 40.9944C236.395 40.5264 237.393 40.5576 238.142 41.0568C238.142 41.0568 252.649 49.4491 252.68 49.4491C253.397 49.9171 253.866 50.6971 253.866 51.6018C253.866 52.569 253.336 53.4112 252.524 53.8169C252.524 53.8169 238.017 62.2091 237.985 62.2091C237.237 62.6147 236.302 62.6459 235.522 62.2091C234.678 61.7412 234.242 60.8364 234.274 59.9316V43.1158L234.304 43.0847Z" fill="#FFCC00"/>
<path id="Vector_9" d="M211.03 56.531C211.03 55.6886 211.499 54.8775 212.278 54.4407C213.121 53.9727 214.119 54.0038 214.868 54.5031C214.868 54.5031 229.375 62.8954 229.407 62.8954C230.124 63.3634 230.591 64.1434 230.591 65.0481C230.591 66.0153 230.031 66.8576 229.25 67.2632C229.25 67.2632 214.743 75.6554 214.712 75.6554C213.963 76.0609 213.058 76.0922 212.248 75.6554C211.405 75.1875 210.969 74.2827 210.999 73.3779V56.5621L211.03 56.531Z" fill="#009640"/>
<path id="Vector_10" fill-rule="evenodd" clip-rule="evenodd" d="M196.992 14.2887C196.992 17.0966 196.618 19.4052 194.777 19.4052C192.937 19.4052 192.531 17.0966 192.531 14.2887C192.531 11.4809 192.905 9.04744 194.777 9.04744C196.648 9.04744 196.992 11.4809 196.992 14.2887ZM201.173 14.3511C201.173 9.67141 198.957 6.23962 194.745 6.23962C190.533 6.23962 188.381 9.67141 188.381 14.3511C188.381 19.0309 190.596 22.4939 194.777 22.4939C198.957 22.4939 201.173 19.0309 201.173 14.3511Z" fill="#878787"/>
<path id="Vector_11" fill-rule="evenodd" clip-rule="evenodd" d="M184.325 6.61407H186.416C186.852 6.61407 187.226 6.98845 187.226 7.42521V8.98513C187.226 9.42189 186.852 9.79627 186.416 9.79627H184.325V17.4711C184.325 18.4693 185.23 19.2493 186.197 19.2493C186.634 19.2493 187.008 19.5925 187.008 20.0604V21.3708C187.008 21.8076 186.228 22.1819 185.792 22.1819H184.917C181.955 22.1819 179.988 19.7796 179.988 16.8471V9.79627H179.084C178.648 9.79627 178.273 9.4531 178.273 8.98513V7.42521C178.273 6.98845 178.616 6.61407 179.084 6.61407H179.988V4.52379C179.988 4.18062 180.176 3.89983 180.456 3.77503L182.984 2.43351C182.984 2.43351 183.327 2.27753 183.513 2.27753C183.951 2.27753 184.325 2.6207 184.325 3.08868V6.61407Z" fill="#878787"/>
<path id="Vector_12" fill-rule="evenodd" clip-rule="evenodd" d="M140.459 6.61407H142.55C142.986 6.61407 143.361 6.98845 143.361 7.42521V8.98513C143.361 9.42189 142.986 9.79627 142.55 9.79627H140.459V17.4711C140.459 18.4693 141.364 19.2493 142.331 19.2493C142.768 19.2493 143.142 19.5925 143.142 20.0604V21.3708C143.142 21.8076 142.799 22.1819 142.331 22.1819H141.458C138.494 22.1819 136.123 19.7796 136.123 16.8471V9.79627H135.218C134.781 9.79627 134.407 9.4531 134.407 8.98513V7.42521C134.407 6.98845 134.781 6.61407 135.218 6.61407H136.123V4.52379C136.123 4.18062 136.31 3.89983 136.591 3.77503L139.149 2.43351C139.149 2.43351 139.492 2.27753 139.679 2.27753C140.116 2.27753 140.49 2.6207 140.49 3.08868V6.61407H140.459Z" fill="#878787"/>
<path id="Vector_13" fill-rule="evenodd" clip-rule="evenodd" d="M158.118 6.61407H160.208C160.645 6.61407 161.02 6.98845 161.02 7.42521V8.98513C161.02 9.42189 160.676 9.79627 160.208 9.79627H158.118V17.4711C158.118 18.4693 158.992 19.2493 159.99 19.2493C160.427 19.2493 160.801 19.5925 160.801 20.0604V21.3708C160.801 21.8076 160.021 22.1819 159.585 22.1819H158.711C155.778 22.1819 153.782 19.7796 153.782 16.8471V9.79627H152.877C152.44 9.79627 152.066 9.4531 152.066 8.98513V7.42521C152.066 6.98845 152.44 6.61407 152.877 6.61407H153.782V4.52379C153.782 4.18062 153.969 3.89983 154.25 3.77503L156.808 2.43351C156.808 2.43351 157.151 2.27753 157.338 2.27753C157.775 2.27753 158.149 2.6207 158.149 3.08868V6.61407H158.118Z" fill="#878787"/>
<path id="Vector_14" d="M123.426 19.3115C123.551 18.9996 123.832 18.7812 124.206 18.7812C124.331 18.7812 124.456 18.7812 124.55 18.8436C125.111 19.0931 125.798 19.2804 126.515 19.2804C127.638 19.2804 128.418 18.5628 128.418 17.5957C128.418 16.5661 127.888 16.0046 126.453 15.443C123.645 14.3511 123.021 12.7912 123.021 11.2C123.021 8.57942 125.049 6.48914 128.137 6.48914C129.76 6.48914 130.976 6.76991 132.037 7.30029C132.224 7.39388 132.38 7.61228 132.38 7.86185C132.38 7.95545 132.38 8.04904 132.318 8.11143L131.85 9.23458C131.725 9.54656 131.444 9.73375 131.07 9.73375C130.945 9.73375 130.82 9.73375 130.727 9.67135C130.29 9.48416 129.728 9.32816 129.136 9.32816C127.981 9.32816 127.389 10.0457 127.389 10.9193C127.389 11.9488 128.169 12.5104 129.354 13.0096C132.287 14.2575 132.973 15.6926 132.973 17.4709C132.973 20.1226 130.789 22.3066 127.17 22.3066C125.61 22.3066 124.175 21.9634 123.208 21.4955C122.99 21.4019 122.865 21.1834 122.865 20.9339C122.865 20.8403 122.865 20.7779 122.896 20.7155L123.458 19.3115H123.426Z" fill="#878787"/>
<path id="Vector_15" fill-rule="evenodd" clip-rule="evenodd" d="M100.714 3.1198C100.714 2.65183 101.089 2.30865 101.526 2.30865H104.24C104.676 2.30865 105.051 2.65183 105.051 3.1198V21.4643C105.051 21.9011 104.676 22.2443 104.24 22.2443H101.526C101.089 22.2443 100.714 21.8698 100.714 21.4331V3.1198Z" fill="#878787"/>
<path id="Vector_16" d="M171.941 7.45637C171.941 7.0196 172.283 6.67642 172.721 6.67642H175.216C175.653 6.67642 175.996 7.0196 175.996 7.45637V16.6598C175.996 20.2165 172.845 22.4627 169.132 22.4627C165.42 22.4627 163.08 20.2476 163.08 16.6598V7.45637C163.08 7.0196 163.423 6.67642 163.86 6.67642H166.699C167.136 6.67642 167.479 7.0196 167.479 7.45637V16.6286C167.479 18.2822 168.446 19.1244 169.725 19.1244C171.004 19.1244 171.941 18.2822 171.941 16.5974V7.45637Z" fill="#878787"/>
<path id="Vector_17" fill-rule="evenodd" clip-rule="evenodd" d="M150.07 21.4331C150.07 21.9011 149.696 22.2442 149.259 22.2442H146.545C146.108 22.2442 145.734 21.87 145.734 21.4331V7.48758C145.734 7.0196 146.108 6.67642 146.545 6.67642H149.259C149.696 6.67642 150.07 7.0196 150.07 7.48758V21.4331Z" fill="#878787"/>
<path id="Vector_18" d="M145.734 1.99668C145.734 0.904746 146.701 0 147.917 0C149.134 0 150.101 0.873547 150.101 1.99668C150.101 3.11982 149.134 3.99336 147.917 3.99336C146.701 3.99336 145.734 3.08861 145.734 1.99668Z" fill="#878787"/>
<path id="Vector_19" d="M120.867 21.4331C120.867 21.9011 120.493 22.2442 120.056 22.2442H117.342C116.905 22.2442 116.531 21.8698 116.531 21.4331V11.4184C116.531 10.3265 116.032 9.26576 114.222 9.26576C113.348 9.26576 112.693 9.42177 112.163 9.57775V21.4331C112.163 21.8698 111.789 22.213 111.352 22.213H108.638C108.201 22.213 107.826 21.8387 107.826 21.4019V9.10978C107.826 8.14264 108.45 7.36269 109.324 7.1131C110.665 6.73872 112.35 6.48914 114.284 6.48914C119.182 6.48914 120.774 8.57942 120.774 11.3872V21.4331H120.867Z" fill="#878787"/>
</g>
</g>
</g>
<defs>
<filter id="filter0_d_248_22" x="0" y="0" width="257.866" height="104.215" filterUnits="userSpaceOnUse" color-interpolation-filters="sRGB">
<feFlood flood-opacity="0" result="BackgroundImageFix"/>
<feColorMatrix in="SourceAlpha" type="matrix" values="0 0 0 0 0 0 0 0 0 0 0 0 0 0 0 0 0 0 127 0" result="hardAlpha"/>
<feOffset dy="4"/>
<feGaussianBlur stdDeviation="2"/>
<feComposite in2="hardAlpha" operator="out"/>
<feColorMatrix type="matrix" values="0 0 0 0 0 0 0 0 0 0 0 0 0 0 0 0 0 0 0.25 0"/>
<feBlend mode="normal" in2="BackgroundImageFix" result="effect1_dropShadow_248_22"/>
<feBlend mode="normal" in="SourceGraphic" in2="effect1_dropShadow_248_22" result="shape"/>
</filter>
</defs>
</svg>
